<mxfile host="app.diagrams.net" modified="2023-11-27T14:31:42.820Z" agent="Mozilla/5.0 (Windows NT 10.0; Win64; x64) AppleWebKit/537.36 (KHTML, like Gecko) Chrome/119.0.0.0 Safari/537.36" version="22.1.4" etag="wm6ZBD8ZsyJr6Sp7KxUI" type="github">
  <diagram name="Page-1" id="QHX9yD70veQmMG0tuujh">
    <mxGraphModel>
      <root>
        <mxCell id="0" />
        <mxCell id="1" parent="0" />
      </root>
    </mxGraphModel>
  </diagram>
</mxfile>
